<?xml version="1.0" standalone="no"?><!DOCTYPE svg PUBLIC "-//W3C//DTD SVG 1.1//EN" "http://www.w3.org/Graphics/SVG/1.1/DTD/svg11.dtd"><svg t="1727749967736" class="icon" viewBox="0 0 1024 1024" version="1.1" xmlns="http://www.w3.org/2000/svg" p-id="4623" xmlns:xlink="http://www.w3.org/1999/xlink" width="200" height="200"><path d="M578.976 513.184c73.248-126.816 94.144-208.736 94.144-286.592 0-118.816-106.784-163.68-168.832-163.68s-168.224 43.328-168.224 163.712c0 76.864 19.84 159.52 92.992 285.472l-171.68 302.72 73.152 146.304 171.872-318.24 192.928 318.24 71.328-132.448-187.68-315.488zM428.672 206.752c0-61.088 37.568-74.4 75.488-74.4 38.016 0 74.496 12.992 74.496 74.112s-74.4 162.912-74.4 162.912-75.584-101.472-75.584-162.624z" fill="#d81e06" p-id="4624"></path></svg>